<mxfile host="Electron" modified="2025-09-25T05:25:03.011Z" agent="Mozilla/5.0 (Windows NT 10.0; Win64; x64) AppleWebKit/537.36 (KHTML, like Gecko) draw.io/24.2.5 Chrome/120.0.6099.109 Electron/28.1.0 Safari/537.36" etag="2Ck58iQpYxL43M8xG3en" version="24.2.5" type="device">
  <diagram id="C5RBs43oDa-KdzZeNtuy" name="Page-1">
    <mxGraphModel dx="1408" dy="863" grid="1" gridSize="10" guides="1" tooltips="1" connect="1" arrows="1" fold="1" page="1" pageScale="1" pageWidth="827" pageHeight="1169" math="0" shadow="0">
      <root>
        <mxCell id="WIyWlLk6GJQsqaUBKTNV-0" />
        <mxCell id="WIyWlLk6GJQsqaUBKTNV-1" parent="WIyWlLk6GJQsqaUBKTNV-0" />
        <mxCell id="7wKmUeajYCY74pPExjIX-2" value="" style="edgeStyle=orthogonalEdgeStyle;rounded=0;orthogonalLoop=1;jettySize=auto;html=1;" edge="1" parent="WIyWlLk6GJQsqaUBKTNV-1" source="7wKmUeajYCY74pPExjIX-0" target="7wKmUeajYCY74pPExjIX-1">
          <mxGeometry relative="1" as="geometry" />
        </mxCell>
        <mxCell id="7wKmUeajYCY74pPExjIX-0" value="INICIO&lt;br&gt;MENU GRUPOS" style="ellipse;whiteSpace=wrap;html=1;aspect=fixed;" vertex="1" parent="WIyWlLk6GJQsqaUBKTNV-1">
          <mxGeometry x="240" y="30" width="90" height="90" as="geometry" />
        </mxCell>
        <mxCell id="7wKmUeajYCY74pPExjIX-4" value="" style="edgeStyle=orthogonalEdgeStyle;rounded=0;orthogonalLoop=1;jettySize=auto;html=1;" edge="1" parent="WIyWlLk6GJQsqaUBKTNV-1" source="7wKmUeajYCY74pPExjIX-1" target="7wKmUeajYCY74pPExjIX-3">
          <mxGeometry relative="1" as="geometry" />
        </mxCell>
        <mxCell id="7wKmUeajYCY74pPExjIX-1" value="Se muestran los grupos en forma de lista" style="rounded=1;whiteSpace=wrap;html=1;" vertex="1" parent="WIyWlLk6GJQsqaUBKTNV-1">
          <mxGeometry x="225" y="190" width="120" height="60" as="geometry" />
        </mxCell>
        <mxCell id="7wKmUeajYCY74pPExjIX-6" value="" style="edgeStyle=orthogonalEdgeStyle;rounded=0;orthogonalLoop=1;jettySize=auto;html=1;" edge="1" parent="WIyWlLk6GJQsqaUBKTNV-1" source="7wKmUeajYCY74pPExjIX-3" target="7wKmUeajYCY74pPExjIX-5">
          <mxGeometry relative="1" as="geometry" />
        </mxCell>
        <mxCell id="7wKmUeajYCY74pPExjIX-3" value="Se selecciona grupo" style="rounded=1;whiteSpace=wrap;html=1;" vertex="1" parent="WIyWlLk6GJQsqaUBKTNV-1">
          <mxGeometry x="225" y="300" width="120" height="60" as="geometry" />
        </mxCell>
        <mxCell id="7wKmUeajYCY74pPExjIX-8" value="" style="edgeStyle=orthogonalEdgeStyle;rounded=0;orthogonalLoop=1;jettySize=auto;html=1;" edge="1" parent="WIyWlLk6GJQsqaUBKTNV-1" source="7wKmUeajYCY74pPExjIX-5" target="7wKmUeajYCY74pPExjIX-7">
          <mxGeometry relative="1" as="geometry" />
        </mxCell>
        <mxCell id="7wKmUeajYCY74pPExjIX-5" value="Se muestran botones de mes y trimestre" style="rounded=1;whiteSpace=wrap;html=1;" vertex="1" parent="WIyWlLk6GJQsqaUBKTNV-1">
          <mxGeometry x="225" y="410" width="120" height="60" as="geometry" />
        </mxCell>
        <mxCell id="7wKmUeajYCY74pPExjIX-12" value="" style="edgeStyle=orthogonalEdgeStyle;rounded=0;orthogonalLoop=1;jettySize=auto;html=1;" edge="1" parent="WIyWlLk6GJQsqaUBKTNV-1" source="7wKmUeajYCY74pPExjIX-7" target="7wKmUeajYCY74pPExjIX-11">
          <mxGeometry relative="1" as="geometry" />
        </mxCell>
        <mxCell id="7wKmUeajYCY74pPExjIX-14" value="" style="edgeStyle=orthogonalEdgeStyle;rounded=0;orthogonalLoop=1;jettySize=auto;html=1;" edge="1" parent="WIyWlLk6GJQsqaUBKTNV-1" source="7wKmUeajYCY74pPExjIX-7" target="7wKmUeajYCY74pPExjIX-13">
          <mxGeometry relative="1" as="geometry" />
        </mxCell>
        <mxCell id="7wKmUeajYCY74pPExjIX-7" value="¿Se presionó boton de un mes?" style="rhombus;whiteSpace=wrap;html=1;rounded=1;" vertex="1" parent="WIyWlLk6GJQsqaUBKTNV-1">
          <mxGeometry x="245" y="540" width="80" height="80" as="geometry" />
        </mxCell>
        <mxCell id="7wKmUeajYCY74pPExjIX-16" value="" style="edgeStyle=orthogonalEdgeStyle;rounded=0;orthogonalLoop=1;jettySize=auto;html=1;" edge="1" parent="WIyWlLk6GJQsqaUBKTNV-1" source="7wKmUeajYCY74pPExjIX-11">
          <mxGeometry relative="1" as="geometry">
            <mxPoint x="445" y="710" as="targetPoint" />
          </mxGeometry>
        </mxCell>
        <mxCell id="7wKmUeajYCY74pPExjIX-20" style="edgeStyle=orthogonalEdgeStyle;rounded=0;orthogonalLoop=1;jettySize=auto;html=1;exitX=1;exitY=0.5;exitDx=0;exitDy=0;entryX=1;entryY=0.5;entryDx=0;entryDy=0;" edge="1" parent="WIyWlLk6GJQsqaUBKTNV-1" source="7wKmUeajYCY74pPExjIX-11" target="7wKmUeajYCY74pPExjIX-1">
          <mxGeometry relative="1" as="geometry" />
        </mxCell>
        <mxCell id="7wKmUeajYCY74pPExjIX-21" value="Continua" style="edgeLabel;html=1;align=center;verticalAlign=middle;resizable=0;points=[];" vertex="1" connectable="0" parent="7wKmUeajYCY74pPExjIX-20">
          <mxGeometry x="-0.2456" relative="1" as="geometry">
            <mxPoint as="offset" />
          </mxGeometry>
        </mxCell>
        <mxCell id="7wKmUeajYCY74pPExjIX-11" value="¿Se presionó boton de trimestre?" style="rhombus;whiteSpace=wrap;html=1;rounded=1;" vertex="1" parent="WIyWlLk6GJQsqaUBKTNV-1">
          <mxGeometry x="405" y="540" width="80" height="80" as="geometry" />
        </mxCell>
        <mxCell id="7wKmUeajYCY74pPExjIX-23" value="" style="edgeStyle=orthogonalEdgeStyle;rounded=0;orthogonalLoop=1;jettySize=auto;html=1;" edge="1" parent="WIyWlLk6GJQsqaUBKTNV-1" source="7wKmUeajYCY74pPExjIX-13" target="7wKmUeajYCY74pPExjIX-22">
          <mxGeometry relative="1" as="geometry" />
        </mxCell>
        <mxCell id="7wKmUeajYCY74pPExjIX-13" value="Abrir lista del mes correspondiente" style="shape=process;whiteSpace=wrap;html=1;backgroundOutline=1;" vertex="1" parent="WIyWlLk6GJQsqaUBKTNV-1">
          <mxGeometry x="225" y="710" width="120" height="60" as="geometry" />
        </mxCell>
        <mxCell id="7wKmUeajYCY74pPExjIX-24" style="edgeStyle=orthogonalEdgeStyle;rounded=0;orthogonalLoop=1;jettySize=auto;html=1;exitX=0.5;exitY=1;exitDx=0;exitDy=0;entryX=1;entryY=0.5;entryDx=0;entryDy=0;" edge="1" parent="WIyWlLk6GJQsqaUBKTNV-1" source="7wKmUeajYCY74pPExjIX-17" target="7wKmUeajYCY74pPExjIX-22">
          <mxGeometry relative="1" as="geometry" />
        </mxCell>
        <mxCell id="7wKmUeajYCY74pPExjIX-17" value="Abrir lista trimestral" style="shape=process;whiteSpace=wrap;html=1;backgroundOutline=1;" vertex="1" parent="WIyWlLk6GJQsqaUBKTNV-1">
          <mxGeometry x="385" y="710" width="120" height="60" as="geometry" />
        </mxCell>
        <mxCell id="7wKmUeajYCY74pPExjIX-22" value="FIN" style="ellipse;whiteSpace=wrap;html=1;aspect=fixed;" vertex="1" parent="WIyWlLk6GJQsqaUBKTNV-1">
          <mxGeometry x="245" y="830" width="80" height="80" as="geometry" />
        </mxCell>
      </root>
    </mxGraphModel>
  </diagram>
</mxfile>
